<svg id="Layer_1" enable-background="new 0 0 100 100" viewBox="0 0 100 100" xmlns="http://www.w3.org/2000/svg" xmlns:xlink="http://www.w3.org/1999/xlink"><linearGradient id="Background_13_" gradientTransform="matrix(60 0 0 -60 4071 44901)" gradientUnits="userSpaceOnUse" x1="-67.017" x2="-67.017" y1="748.266" y2="746.767"><stop offset="0" stop-color="#1e51ee"/><stop offset="1" stop-color="#19e6ff"/></linearGradient><g id="Symbols_3_"><g id="Graphics-_x2F_-App-Icons-_x2F_-Mail"><g id="Mail-Icon"><path id="Background_2_" d="m63.6 5c9 0 13.5 0 18.4 1.5 5.3 1.9 9.5 6.1 11.4 11.4 1.6 4.9 1.6 9.5 1.6 18.5v27.2c0 9 0 13.5-1.5 18.4-1.9 5.3-6.1 9.5-11.4 11.4-4.9 1.6-9.5 1.6-18.5 1.6h-27.2c-9 0-13.5 0-18.4-1.5-5.3-2-9.5-6.1-11.4-11.5-1.6-4.8-1.6-9.3-1.6-18.4v-27.2c0-9 0-13.5 1.5-18.4 2-5.3 6.2-9.5 11.5-11.4 4.8-1.6 9.4-1.6 18.4-1.6z" fill="url(#Background_13_)"/><path d="m78.9 69.5c-.1 0-.3.1-.4.1h-57c-.1 0-.3 0-.4-.1l17.8-17.8 3.8 3.9c4.1 4.2 10.6 4.2 14.7 0l3.8-3.9zm1.1-1.9v-35.3c0-.2 0-.4-.1-.5-.1.2-17.7 18.4-17.7 18.4l17.8 17.8c0-.2 0-.3 0-.4zm-60 .1v-35.2c0-.2 0-.4.1-.5.1.2 17.7 18.4 17.7 18.4l-17.7 17.7c-.1-.1-.1-.3-.1-.4zm59-37.1-22.7 23.2c-3.5 3.5-9.1 3.5-12.5 0l-22.7-23.2c-.1-.1 57.9 0 57.9 0z" fill="#fff"/></g></g></g></svg>