<svg id="Layer_1" enable-background="new 0 0 100 100" viewBox="0 0 100 100" xmlns="http://www.w3.org/2000/svg" xmlns:xlink="http://www.w3.org/1999/xlink"><linearGradient id="Background_13_" gradientTransform="matrix(60 0 0 -60 -17169 37581)" gradientUnits="userSpaceOnUse" x1="286.984" x2="286.984" y1="626.266" y2="624.767"><stop offset="0" stop-color="#67ff81"/><stop offset="1" stop-color="#01b41f"/></linearGradient><g id="Symbols_11_"><g id="Graphics-_x2F_-App-Icons-_x2F_-Phone"><g id="Phone-Icon"><path id="Background_11_" d="m63.6 5c9 0 13.5 0 18.4 1.5 5.3 1.9 9.5 6.1 11.4 11.4 1.6 5 1.6 9.5 1.6 18.5v27.2c0 9 0 13.5-1.5 18.4-1.9 5.3-6.1 9.5-11.4 11.4-4.9 1.6-9.4 1.6-18.5 1.6h-27.2c-9 0-13.5 0-18.4-1.5-5.3-2-9.5-6.1-11.4-11.5-1.6-4.8-1.6-9.3-1.6-18.4v-27.2c0-9 0-13.5 1.5-18.4 2-5.3 6.2-9.5 11.5-11.4 4.9-1.6 9.4-1.6 18.4-1.6z" fill="url(#Background_13_)"/><path d="m25.7 44.3c-3.3-6-4.6-10.9-4.6-14.2s.8-4.2 1.6-5 4.5-3 5.2-3.5c.6-.4 3-1.3 4.5.9s4.3 6.5 6.3 9.4c3.1 4.1.6 5.9-.2 7-1.5 2-2.3 2.5-2.3 4.9s6.8 9.4 8.4 11.1 8.4 7.6 10.5 8c2.1.3 5-1.9 5.6-2.5 3.1-2.4 4.8-.6 6.2.2s7.8 4.8 9.8 6.1c1.9 1.3 1.7 3.4 1.7 3.4s-1.3 3.9-4.3 6.8c-.7.7-2 1.6-5.1 1.6s-6.5-.6-14.5-5c-6.5-3.6-12.7-9.2-16-12.5-3.3-3.2-9-9.8-12.8-16.7z" fill="#fff"/></g></g></g></svg>